<svg width="64" height="64" viewBox="0 0 64 64" xmlns="http://www.w3.org/2000/svg">
    <path d="M16.1342 47.8658L16.2753 47.7247L16.1342 47.8658C16.5799 48.3114 17.3025 48.3114 17.7481 47.8658L32 33.6139L46.2519 47.8658C46.6975 48.3114 47.4201 48.3114 47.8658 47.8658C48.3114 47.4201 48.3114 46.6975 47.8658 46.2519L33.6139 32L47.8658 17.7481C48.3114 17.3025 48.3114 16.5799 47.8658 16.1342L47.7251 16.2749L47.8658 16.1342C47.4201 15.6886 46.6975 15.6886 46.2519 16.1342L32 30.3861L17.7481 16.1342C17.3025 15.6886 16.5799 15.6886 16.1342 16.1342C15.6886 16.5799 15.6886 17.3025 16.1342 17.7481L30.3861 32L16.1342 46.2519C15.6886 46.6975 15.6886 47.4201 16.1342 47.8658Z"/>
</svg>
