<svg width="20" height="20" viewBox="0 0 20 20" xmlns="http://www.w3.org/2000/svg">
    <path d="M10 1.25c3.6243687 0 6.5625 2.93813133 6.5625 6.5625 0 2.4162458-2.1875 6.0620791-6.5625 10.9375-4.375-4.8754209-6.5625-8.5212542-6.5625-10.9375C3.4375 4.18813133 6.37563133 1.25 10 1.25Zm0 .9375c-3.10660172 0-5.625 2.51839828-5.625 5.625 0 1.98838154 1.86533135 5.2098982 5.6250008 9.5226947C13.7596689 13.0223977 15.625 9.80088141 15.625 7.8125c0-3.10660172-2.5183983-5.625-5.625-5.625Zm0 2.5c1.7258898 0 3.125 1.39911016 3.125 3.125s-1.3991102 3.125-3.125 3.125c-1.72588984 0-3.125-1.39911016-3.125-3.125S8.27411016 4.6875 10 4.6875Zm0 .625c-1.38071187 0-2.5 1.11928813-2.5 2.5s1.11928813 2.5 2.5 2.5c1.3807119 0 2.5-1.11928813 2.5-2.5s-1.1192881-2.5-2.5-2.5Z"/>
</svg>
