<svg width="20" height="20" viewBox="0 0 20 20" xmlns="http://www.w3.org/2000/svg">
    <path d="M16.40625 2.03125c.8629449 0 1.5625.69955508 1.5625 1.5625 0 .69957543-.4597533 1.29176973-1.0935975 1.49092049v9.83065901c.6338442.1991508 1.0935975.7913451 1.0935975 1.4909205 0 .8629449-.6995551 1.5625-1.5625 1.5625-.6995754 0-1.2917697-.4597533-1.4909205-1.0935975H5.08467049C4.88551973 17.5089967 4.29332543 17.96875 3.59375 17.96875c-.86294492 0-1.5625-.6995551-1.5625-1.5625 0-.6992067.45926872-1.2911454 1.09259528-1.4906052V5.08435522C2.49051872 4.88489535 2.03125 4.29295665 2.03125 3.59375c0-.86294492.69955508-1.5625 1.5625-1.5625.69920665 0 1.29114535.45926872 1.49060522 1.09259528h9.83128958C15.1151046 2.49051872 15.7070433 2.03125 16.40625 2.03125ZM3.59375 15.625c-.43147246 0-.78125.3497775-.78125.78125s.34977754.78125.78125.78125.78125-.3497775.78125-.78125-.34977754-.78125-.78125-.78125Zm12.8125 0c-.4314725 0-.78125.3497775-.78125.78125s.3497775.78125.78125.78125.78125-.3497775.78125-.78125-.3497775-.78125-.78125-.78125ZM14.9156448 4.06365472H5.08435522c-.15275091.48501591-.53568459.86794959-1.0207005 1.0207005v9.83128958c.48534995.1528561.868477.5362121 1.02101577 1.0217027h9.83065901c.1526438-.4858247.5361933-.8693742 1.022018-1.022018V5.08467049c-.4854906-.15253877-.8688466-.53566582-1.0217027-1.02101577ZM3.59375 2.8125c-.43147246 0-.78125.34977754-.78125.78125s.34977754.78125.78125.78125.78125-.34977754.78125-.78125-.34977754-.78125-.78125-.78125Zm12.8125 0c-.4314725 0-.78125.34977754-.78125.78125s.3497775.78125.78125.78125.78125-.34977754.78125-.78125-.3497775-.78125-.78125-.78125Z"/>
</svg>
